# xmcd
#
# Track frame offsets: 
#        182
#        17690
#        42752
#        70522
#
# Disc length: 1312 seconds
#
# Revision: 1
# Processed by: cddbd v1.5.2PL0 Copyright (c) Steve Scherf et al.
# Submitted via: ExactAudioCopy v0.99pb4
#
DISCID=25051e04
DTITLE=Move 2 Groove - Let Me Be
DYEAR=1995
DGENRE=Dance
TTITLE0=Let Me Be (Airplay Mix)
TTITLE1=Let Me Be (DJ Beam Mix)
TTITLE2=Let Me Be (A.K.O. Mix)
TTITLE3=Let Me Be (Extended Mix)
EXTD=
EXTT0=
EXTT1=
EXTT2=
EXTT3=
PLAYORDER=
